                                                                        S      1
,,9HHub_Outer,9HHub_Outer,7Hunknown,7Hunknown,32,38,7,99,15,,1.,2,2HMM, G      1
1,0.08,15H20160928.110532,0.01,10000.,7Hunknown,7Hunknown,11,0,;        G      2
     186       1                                                00000000D      1
     186            -115       1       0                               0D      2
     514       2                                                00010000D      3
     514                       1       1                               0D      4
     510       3                                                00010000D      5
     510            -115       1       1                               0D      6
     510       4                                                00010000D      7
     510            -115       1       1                               0D      8
     510       5                                                00010000D      9
     510            -115       1       1                               0D     10
     510       6                                                00010000D     11
     510            -115       1       1                               0D     12
     510       7                                                00010000D     13
     510            -115       1       1                               0D     14
     510       8                                                00010000D     15
     510            -115       1       1                               0D     16
     510       9                                                00010000D     17
     510            -115       1       1                               0D     18
     510      10                                                00010000D     19
     510            -115       1       1                               0D     20
     510      11                                                00010000D     21
     510            -115       1       1                               0D     22
     510      12                                                00010000D     23
     510            -115       1       1                               0D     24
     510      13                                                00010000D     25
     510            -115       1       1                               0D     26
     508      14                                                00010000D     27
     508                       1       1                               0D     28
     508      15                                                00010000D     29
     508                       1       1                               0D     30
     508      16                                                00010000D     31
     508                       1       1                               0D     32
     508      17                                                00010000D     33
     508                       1       1                               0D     34
     508      18                                                00010000D     35
     508                       1       1                               0D     36
     508      19                                                00010000D     37
     508                       1       1                               0D     38
     508      20                                                00010000D     39
     508                       1       1                               0D     40
     508      21                                                00010000D     41
     508                       1       1                               0D     42
     508      22                                                00010000D     43
     508                       1       1                               0D     44
     508      23                                                00010000D     45
     508                       1       1                               0D     46
     508      24                                                00010000D     47
     508                       1       1                               0D     48
     508      25                                                00010000D     49
     508                       1       1                               0D     50
     508      26                                                00010000D     51
     508                       1       1                               0D     52
     508      27                                                00010000D     53
     508                       1       1                               0D     54
     508      28                                                00010000D     55
     508                       1       1                               0D     56
     126      29                                                00010000D     57
     126       0              12       0                               0D     58
     126      41                                                00010000D     59
     126       0              12       0                               0D     60
     126      53                                                00010000D     61
     126       0              12       0                               0D     62
     126      65                                                00010000D     63
     126       0              12       0                               0D     64
     126      77                                                00010000D     65
     126       0               3       0                               0D     66
     126      80                                                00010000D     67
     126       0              12       0                               0D     68
     126      92                                                00010000D     69
     126       0               3       0                               0D     70
     126      95                                                00010000D     71
     126       0              12       0                               0D     72
     126     107                                                00010000D     73
     126       0               3       0                               0D     74
     126     110                                                00010000D     75
     126       0               9       0                               0D     76
     126     119                                                00010000D     77
     126       0              10       0                               0D     78
     126     129                                                00010000D     79
     126       0              10       0                               0D     80
     126     139                                                00010000D     81
     126       0               2       0                               0D     82
     126     141                                                00010000D     83
     126       0              10       0                               0D     84
     126     151                                                00010000D     85
     126       0               2       0                               0D     86
     128     153                                                00010000D     87
     128       0    -115       5       0                               0D     88
     128     158                                                00010000D     89
     128       0    -115       5       0                               0D     90
     128     163                                                00010000D     91
     128       0    -115       5       0                               0D     92
     128     168                                                00010000D     93
     128       0    -115      20       0                               0D     94
     128     188                                                00010000D     95
     128       0    -115      20       0                               0D     96
     128     208                                                00010000D     97
     128       0    -115      20       0                               0D     98
     128     228                                                00010000D     99
     128       0    -115       3       0                               0D    100
     128     231                                                00010000D    101
     128       0    -115      11       0                               0D    102
     128     242                                                00010000D    103
     128       0    -115       3       0                               0D    104
     128     245                                                00010000D    105
     128       0    -115      12       0                               0D    106
     128     257                                                00010000D    107
     128       0    -115       3       0                               0D    108
     502     260                                                00010000D    109
     502                       6       1                               0D    110
     504     266                                                00010001D    111
     504                       4       1                               0D    112
     406     270                                                00000000D    113
     406                       1      15                               0D    114
     314     271                                                00000200D    115
     314                       2       0                               0D    116
186,3,1,0,0,1,113;                                                     1P      1
514,11,5,1,7,1,9,1,11,1,13,1,15,1,17,1,19,1,21,1,23,1,25,1;            3P      2
510,87,1,1,27;                                                         5P      3
510,89,1,1,29;                                                         7P      4
510,91,1,1,31;                                                         9P      5
510,93,1,1,33;                                                        11P      6
510,95,1,1,35;                                                        13P      7
510,97,1,1,37;                                                        15P      8
510,99,2,1,39,41;                                                     17P      9
510,101,1,1,43;                                                       19P     10
510,103,1,1,45;                                                       21P     11
510,105,1,1,47;                                                       23P     12
510,107,4,1,49,51,53,55;                                              25P     13
508,1,0,111,1,0,0;                                                    27P     14
508,1,0,111,2,0,0;                                                    29P     15
508,1,0,111,3,0,0;                                                    31P     16
508,4,0,111,4,0,0,0,111,5,1,0,0,111,1,1,0,0,111,5,0,0;                33P     17
508,4,0,111,6,0,0,0,111,7,1,0,0,111,2,1,0,0,111,7,0,0;                35P     18
508,4,0,111,8,0,0,0,111,9,1,0,0,111,3,1,0,0,111,9,0,0;                37P     19
508,1,0,111,10,1,0;                                                   39P     20
508,1,0,111,11,0,0;                                                   41P     21
508,4,0,111,12,0,0,0,111,13,1,0,0,111,10,0,0,0,111,13,0,0;            43P     22
508,1,0,111,12,1,0;                                                   45P     23
508,4,0,111,14,0,0,0,111,15,1,0,0,111,11,1,0,0,111,15,0,0;            47P     24
508,1,0,111,14,1,0;                                                   49P     25
508,1,0,111,4,1,0;                                                    51P     26
508,1,0,111,6,1,0;                                                    53P     27
508,1,0,111,8,1,0;                                                    55P     28
126,8,2,0,1,0,0,-3.14159265358979,-3.14159265358979,                  57P     29
-3.14159265358979,-1.5707963267949,-1.5707963267949,0.,0.,            57P     30
1.5707963267949,1.5707963267949,3.14159265358979,                     57P     31
3.14159265358979,3.14159265358979,1.,0.707106781186547,1.,            57P     32
0.707106781186547,1.,0.707106781186547,1.,0.707106781186547,1.,       57P     33
12.3206479277742,0.,8.06161837700781,12.3206479277742,0.,             57P     34
6.56161837700781,13.8206479277742,0.,6.56161837700781,                57P     35
15.3206479277742,0.,6.56161837700781,15.3206479277742,0.,             57P     36
8.06161837700781,15.3206479277742,0.,9.56161837700781,                57P     37
13.8206479277742,0.,9.56161837700781,12.3206479277742,0.,             57P     38
9.56161837700781,12.3206479277742,0.,8.06161837700781,                57P     39
-3.14159265358979,3.14159265358979,0.,0.,0.;                          57P     40
126,8,2,0,1,0,0,-3.14159265358979,-3.14159265358979,                  59P     41
-3.14159265358979,-1.5707963267949,-1.5707963267949,0.,0.,            59P     42
1.5707963267949,1.5707963267949,3.14159265358979,                     59P     43
3.14159265358979,3.14159265358979,1.,0.707106781186548,1.,            59P     44
0.707106781186548,1.,0.707106781186548,1.,0.707106781186548,1.,       59P     45
-15.3918902739913,0.,7.93822301370933,-15.3918902739913,0.,           59P     46
6.43822301370933,-13.8918902739913,0.,6.43822301370933,               59P     47
-12.3918902739913,0.,6.43822301370933,-12.3918902739913,0.,           59P     48
7.93822301370933,-12.3918902739913,0.,9.43822301370933,               59P     49
-13.8918902739913,0.,9.43822301370933,-15.3918902739913,0.,           59P     50
9.43822301370933,-15.3918902739913,0.,7.93822301370933,               59P     51
-3.14159265358979,3.14159265358979,0.,0.,0.;                          59P     52
126,8,2,0,1,0,0,-3.14159265358979,-3.14159265358979,                  61P     53
-3.14159265358979,-1.5707963267949,-1.5707963267949,0.,0.,            61P     54
1.5707963267949,1.5707963267949,3.14159265358979,                     61P     55
3.14159265358979,3.14159265358979,1.,0.707106781186546,1.,            61P     56
0.707106781186546,1.,0.707106781186546,1.,0.707106781186546,1.,       61P     57
-1.42875765378288,0.,-15.9998413907171,-1.42875765378288,0.,          61P     58
-17.4998413907171,0.0712423462171209,0.,-17.4998413907171,            61P     59
1.57124234621712,0.,-17.4998413907171,1.57124234621712,0.,            61P     60
-15.9998413907171,1.57124234621712,0.,-14.4998413907171,              61P     61
0.0712423462171209,0.,-14.4998413907171,-1.42875765378288,0.,         61P     62
-14.4998413907171,-1.42875765378288,0.,-15.9998413907171,             61P     63
-3.14159265358979,3.14159265358979,0.,0.,0.;                          61P     64
126,8,2,0,1,0,0,-3.14159265358979,-3.14159265358979,                  63P     65
-3.14159265358979,-1.5707963267949,-1.5707963267949,0.,0.,            63P     66
1.5707963267949,1.5707963267949,3.14159265358979,                     63P     67
3.14159265358979,3.14159265358979,1.,0.707106781186547,1.,            63P     68
0.707106781186547,1.,0.707106781186547,1.,0.707106781186547,1.,       63P     69
12.3206479277742,10.,8.06161837700781,12.3206479277742,10.,           63P     70
6.56161837700781,13.8206479277742,10.,6.56161837700781,               63P     71
15.3206479277742,10.,6.56161837700781,15.3206479277742,10.,           63P     72
8.06161837700781,15.3206479277742,10.,9.56161837700781,               63P     73
13.8206479277742,10.,9.56161837700781,12.3206479277742,10.,           63P     74
9.56161837700781,12.3206479277742,10.,8.06161837700781,               63P     75
-3.14159265358979,3.14159265358979,0.,0.,0.;                          63P     76
126,1,1,0,0,1,0,-8.66666666666666,-8.66666666666666,-2.,-2.,1.,       65P     77
1.,12.3206479277742,10.,8.06161837700781,12.3206479277742,0.,         65P     78
8.06161837700781,-8.66666666666666,-2.,0.,0.,0.;                      65P     79
126,8,2,0,1,0,0,-3.14159265358979,-3.14159265358979,                  67P     80
-3.14159265358979,-1.5707963267949,-1.5707963267949,0.,0.,            67P     81
1.5707963267949,1.5707963267949,3.14159265358979,                     67P     82
3.14159265358979,3.14159265358979,1.,0.707106781186548,1.,            67P     83
0.707106781186548,1.,0.707106781186548,1.,0.707106781186548,1.,       67P     84
-15.3918902739913,10.,7.93822301370933,-15.3918902739913,10.,         67P     85
6.43822301370933,-13.8918902739913,10.,6.43822301370933,              67P     86
-12.3918902739913,10.,6.43822301370933,-12.3918902739913,10.,         67P     87
7.93822301370933,-12.3918902739913,10.,9.43822301370933,              67P     88
-13.8918902739913,10.,9.43822301370933,-15.3918902739913,10.,         67P     89
9.43822301370933,-15.3918902739913,10.,7.93822301370933,              67P     90
-3.14159265358979,3.14159265358979,0.,0.,0.;                          67P     91
126,1,1,0,0,1,0,-8.66666666666667,-8.66666666666667,-2.,-2.,1.,       69P     92
1.,-15.3918902739913,10.,7.93822301370933,-15.3918902739913,0.,       69P     93
7.93822301370933,-8.66666666666667,-2.,0.,0.,0.;                      69P     94
126,8,2,0,1,0,0,-3.14159265358979,-3.14159265358979,                  71P     95
-3.14159265358979,-1.5707963267949,-1.5707963267949,0.,0.,            71P     96
1.5707963267949,1.5707963267949,3.14159265358979,                     71P     97
3.14159265358979,3.14159265358979,1.,0.707106781186546,1.,            71P     98
0.707106781186546,1.,0.707106781186546,1.,0.707106781186546,1.,       71P     99
-1.42875765378288,10.,-15.9998413907171,-1.42875765378288,10.,        71P    100
-17.4998413907171,0.0712423462171209,10.,-17.4998413907171,           71P    101
1.57124234621712,10.,-17.4998413907171,1.57124234621712,10.,          71P    102
-15.9998413907171,1.57124234621712,10.,-14.4998413907171,             71P    103
0.0712423462171209,10.,-14.4998413907171,-1.42875765378288,10.,       71P    104
-14.4998413907171,-1.42875765378288,10.,-15.9998413907171,            71P    105
-3.14159265358979,3.14159265358979,0.,0.,0.;                          71P    106
126,1,1,0,0,1,0,-8.66666666666667,-8.66666666666667,-2.,-2.,1.,       73P    107
1.,-1.42875765378288,10.,-15.9998413907171,-1.42875765378288,0.,      73P    108
-15.9998413907171,-8.66666666666667,-2.,0.,0.,0.;                     73P    109
126,8,2,0,1,0,0,-3.14159265358979,-3.14159265358979,                  75P    110
-3.14159265358979,-1.5707963267949,-1.5707963267949,0.,0.,            75P    111
1.5707963267949,1.5707963267949,3.14159265358979,                     75P    112
3.14159265358979,3.14159265358979,1.,0.707106781186548,1.,            75P    113
0.707106781186547,1.,0.707106781186547,1.,0.707106781186548,1.,       75P    114
-25.,0.,3.06161699786838D-15,-25.,0.,25.,1.53080849893419D-15,        75P    115
0.,25.,25.,0.,25.,25.,0.,0.,25.,0.,-25.,1.53080849893419D-15,0.,      75P    116
-25.,-25.,0.,-25.,-25.,0.,-3.06161699786838D-15,                      75P    117
-3.14159265358979,3.14159265358979,0.,0.,0.;                          75P    118
126,8,2,0,1,0,0,-3.14159265358979,-3.14159265358979,                  77P    119
-3.14159265358979,-1.5707963267949,-1.5707963267949,0.,0.,            77P    120
1.5707963267949,1.5707963267949,3.14159265358979,                     77P    121
3.14159265358979,3.14159265358979,1.,0.707106781186548,1.,            77P    122
0.707106781186548,1.,0.707106781186548,1.,0.707106781186548,1.,       77P    123
-22.5,0.,2.75545529808154D-15,-22.5,0.,22.5,                          77P    124
1.37772764904077D-15,0.,22.5,22.5,0.,22.5,22.5,0.,0.,22.5,0.,         77P    125
-22.5,1.37772764904077D-15,0.,-22.5,-22.5,0.,-22.5,-22.5,0.,          77P    126
-2.75545529808154D-15,-3.14159265358979,3.14159265358979,0.,0.,       77P    127
0.;                                                                   77P    128
126,8,2,0,1,0,0,-3.14159265358979,-3.14159265358979,                  79P    129
-3.14159265358979,-1.5707963267949,-1.5707963267949,0.,0.,            79P    130
1.5707963267949,1.5707963267949,3.14159265358979,                     79P    131
3.14159265358979,3.14159265358979,1.,0.707106781186548,1.,            79P    132
0.707106781186547,1.,0.707106781186547,1.,0.707106781186548,1.,       79P    133
-25.,-3.,-3.06161699786838D-15,-25.,-3.,-25.,                         79P    134
1.53080849893419D-15,-3.,-25.,25.,-3.,-25.,25.,-3.,0.,25.,-3.,        79P    135
25.,1.53080849893419D-15,-3.,25.,-25.,-3.,25.,-25.,-3.,               79P    136
3.06161699786838D-15,-3.14159265358979,3.14159265358979,0.,0.,        79P    137
0.;                                                                   79P    138
126,1,1,0,0,1,0,-0.12,-0.12,0.,0.,1.,1.,-25.,-3.,0.,-25.,0.,0.,       81P    139
-0.12,0.,0.,0.,0.;                                                    81P    140
126,8,2,0,1,0,0,-3.14159265358979,-3.14159265358979,                  83P    141
-3.14159265358979,-1.5707963267949,-1.5707963267949,0.,0.,            83P    142
1.5707963267949,1.5707963267949,3.14159265358979,                     83P    143
3.14159265358979,3.14159265358979,1.,0.707106781186548,1.,            83P    144
0.707106781186548,1.,0.707106781186548,1.,0.707106781186548,1.,       83P    145
-22.5,10.,2.75545529808154D-15,-22.5,10.,22.5,                        83P    146
1.37772764904077D-15,10.,22.5,22.5,10.,22.5,22.5,10.,0.,22.5,         83P    147
10.,-22.5,1.37772764904077D-15,10.,-22.5,-22.5,10.,-22.5,-22.5,       83P    148
10.,-2.75545529808154D-15,-3.14159265358979,3.14159265358979,0.,      83P    149
0.,0.;                                                                83P    150
126,1,1,0,0,1,0,-0.444444444444444,-0.444444444444444,0.,0.,1.,       85P    151
1.,-22.5,10.,0.,-22.5,0.,0.,-0.444444444444444,0.,0.,0.,0.;           85P    152
128,1,1,1,1,0,0,1,0,0,-0.151,-0.151,0.151,0.151,-0.151,-0.151,        87P    153
0.151,0.151,1.,1.,1.,1.,15.3306479277742,0.,6.5516183770078,          87P    154
12.3106479277742,0.,6.5516183770078,15.3306479277742,0.,              87P    155
9.57161837700781,12.3106479277742,0.,9.57161837700781,-0.151,         87P    156
0.151,-0.151,0.151;                                                   87P    157
128,1,1,1,1,0,0,1,0,0,-0.151,-0.151,0.151,0.151,-0.151,-0.151,        89P    158
0.151,0.151,1.,1.,1.,1.,-12.3818902739913,0.,6.42822301370933,        89P    159
-15.4018902739913,0.,6.42822301370933,-12.3818902739913,0.,           89P    160
9.44822301370933,-15.4018902739913,0.,9.44822301370933,-0.151,        89P    161
0.151,-0.151,0.151;                                                   89P    162
128,1,1,1,1,0,0,1,0,0,-0.151,-0.151,0.151,0.151,-0.151,-0.151,        91P    163
0.151,0.151,1.,1.,1.,1.,1.58124234621712,0.,-17.5098413907171,        91P    164
-1.43875765378288,0.,-17.5098413907171,1.58124234621712,0.,           91P    165
-14.4898413907171,-1.43875765378288,0.,-14.4898413907171,-0.151,      91P    166
0.151,-0.151,0.151;                                                   91P    167
128,1,8,1,2,0,1,0,0,1,2.,2.,8.66666666666666,8.66666666666666,        93P    168
-3.14159265358979,-3.14159265358979,-3.14159265358979,                93P    169
-1.5707963267949,-1.5707963267949,0.,0.,1.5707963267949,              93P    170
1.5707963267949,3.14159265358979,3.14159265358979,                    93P    171
3.14159265358979,1.,1.,0.707106781186548,0.707106781186548,1.,        93P    172
1.,0.707106781186548,0.707106781186548,1.,1.,0.707106781186548,       93P    173
0.707106781186548,1.,1.,0.707106781186548,0.707106781186548,1.,       93P    174
1.,12.3206479277742,0.,8.06161837700781,12.3206479277742,10.,         93P    175
8.06161837700781,12.3206479277742,0.,9.56161837700781,                93P    176
12.3206479277742,10.,9.56161837700781,13.8206479277742,0.,            93P    177
9.56161837700781,13.8206479277742,10.,9.56161837700781,               93P    178
15.3206479277742,0.,9.56161837700781,15.3206479277742,10.,            93P    179
9.56161837700781,15.3206479277742,0.,8.06161837700781,                93P    180
15.3206479277742,10.,8.06161837700781,15.3206479277742,0.,            93P    181
6.56161837700781,15.3206479277742,10.,6.56161837700781,               93P    182
13.8206479277742,0.,6.56161837700781,13.8206479277742,10.,            93P    183
6.56161837700781,12.3206479277742,0.,6.56161837700781,                93P    184
12.3206479277742,10.,6.56161837700781,12.3206479277742,0.,            93P    185
8.06161837700781,12.3206479277742,10.,8.06161837700781,2.,            93P    186
8.66666666666666,-3.14159265358979,3.14159265358979;                  93P    187
128,1,8,1,2,0,1,0,0,1,2.,2.,8.66666666666667,8.66666666666667,        95P    188
-3.14159265358979,-3.14159265358979,-3.14159265358979,                95P    189
-1.5707963267949,-1.5707963267949,0.,0.,1.5707963267949,              95P    190
1.5707963267949,3.14159265358979,3.14159265358979,                    95P    191
3.14159265358979,1.,1.,0.707106781186548,0.707106781186548,1.,        95P    192
1.,0.707106781186548,0.707106781186548,1.,1.,0.707106781186548,       95P    193
0.707106781186548,1.,1.,0.707106781186548,0.707106781186548,1.,       95P    194
1.,-15.3918902739913,0.,7.93822301370933,-15.3918902739913,10.,       95P    195
7.93822301370933,-15.3918902739913,0.,9.43822301370933,               95P    196
-15.3918902739913,10.,9.43822301370933,-13.8918902739913,0.,          95P    197
9.43822301370933,-13.8918902739913,10.,9.43822301370933,              95P    198
-12.3918902739913,0.,9.43822301370933,-12.3918902739913,10.,          95P    199
9.43822301370933,-12.3918902739913,0.,7.93822301370933,               95P    200
-12.3918902739913,10.,7.93822301370933,-12.3918902739913,0.,          95P    201
6.43822301370933,-12.3918902739913,10.,6.43822301370933,              95P    202
-13.8918902739913,0.,6.43822301370933,-13.8918902739913,10.,          95P    203
6.43822301370933,-15.3918902739913,0.,6.43822301370933,               95P    204
-15.3918902739913,10.,6.43822301370933,-15.3918902739913,0.,          95P    205
7.93822301370933,-15.3918902739913,10.,7.93822301370933,2.,           95P    206
8.66666666666667,-3.14159265358979,3.14159265358979;                  95P    207
128,1,8,1,2,0,1,0,0,1,2.,2.,8.66666666666667,8.66666666666667,        97P    208
-3.14159265358979,-3.14159265358979,-3.14159265358979,                97P    209
-1.5707963267949,-1.5707963267949,0.,0.,1.5707963267949,              97P    210
1.5707963267949,3.14159265358979,3.14159265358979,                    97P    211
3.14159265358979,1.,1.,0.707106781186548,0.707106781186548,1.,        97P    212
1.,0.707106781186548,0.707106781186548,1.,1.,0.707106781186548,       97P    213
0.707106781186548,1.,1.,0.707106781186548,0.707106781186548,1.,       97P    214
1.,-1.42875765378288,0.,-15.9998413907171,-1.42875765378288,10.,      97P    215
-15.9998413907171,-1.42875765378288,0.,-14.4998413907171,             97P    216
-1.42875765378288,10.,-14.4998413907171,0.0712423462171208,0.,        97P    217
-14.4998413907171,0.0712423462171208,10.,-14.4998413907171,           97P    218
1.57124234621712,0.,-14.4998413907171,1.57124234621712,10.,           97P    219
-14.4998413907171,1.57124234621712,0.,-15.9998413907171,              97P    220
1.57124234621712,10.,-15.9998413907171,1.57124234621712,0.,           97P    221
-17.4998413907171,1.57124234621712,10.,-17.4998413907171,             97P    222
0.0712423462171208,0.,-17.4998413907171,0.0712423462171208,10.,       97P    223
-17.4998413907171,-1.42875765378288,0.,-17.4998413907171,             97P    224
-1.42875765378288,10.,-17.4998413907171,-1.42875765378288,0.,         97P    225
-15.9998413907171,-1.42875765378288,10.,-15.9998413907171,2.,         97P    226
8.66666666666667,-3.14159265358979,3.14159265358979;                  97P    227
128,1,1,1,1,0,0,1,0,0,-2.501,-2.501,2.501,2.501,-2.501,-2.501,        99P    228
2.501,2.501,1.,1.,1.,1.,-25.01,0.,25.01,25.01,0.,25.01,-25.01,        99P    229
0.,-25.01,25.01,0.,-25.01,-2.501,2.501,-2.501,2.501;                  99P    230
128,1,8,1,2,0,1,0,0,1,0.,0.,0.12,0.12,-3.14159265358979,             101P    231
-3.14159265358979,-3.14159265358979,-1.5707963267949,                101P    232
-1.5707963267949,0.,0.,1.5707963267949,1.5707963267949,              101P    233
3.14159265358979,3.14159265358979,3.14159265358979,1.,1.,            101P    234
0.707106781186548,0.707106781186548,1.,1.,0.707106781186548,         101P    235
0.707106781186548,1.,1.,0.707106781186548,0.707106781186548,1.,      101P    236
1.,0.707106781186548,0.707106781186548,1.,1.,-25.,-3.,0.,-25.,       101P    237
0.,0.,-25.,-3.,-25.,-25.,0.,-25.,0.,-3.,-25.,0.,0.,-25.,25.,-3.,     101P    238
-25.,25.,0.,-25.,25.,-3.,0.,25.,0.,0.,25.,-3.,25.,25.,0.,25.,0.,     101P    239
-3.,25.,0.,0.,25.,-25.,-3.,25.,-25.,0.,25.,-25.,-3.,0.,-25.,0.,      101P    240
0.,0.,0.12,-3.14159265358979,3.14159265358979;                       101P    241
128,1,1,1,1,0,0,1,0,0,-2.501,-2.501,2.501,2.501,-2.501,-2.501,       103P    242
2.501,2.501,1.,1.,1.,1.,25.01,-3.,25.01,-25.01,-3.,25.01,25.01,      103P    243
-3.,-25.01,-25.01,-3.,-25.01,-2.501,2.501,-2.501,2.501;              103P    244
128,1,8,1,2,0,1,0,0,1,0.,0.,0.444444444444444,0.444444444444444,     105P    245
-3.14159265358979,-3.14159265358979,-3.14159265358979,               105P    246
-1.5707963267949,-1.5707963267949,0.,0.,1.5707963267949,             105P    247
1.5707963267949,3.14159265358979,3.14159265358979,                   105P    248
3.14159265358979,1.,1.,0.707106781186548,0.707106781186548,1.,       105P    249
1.,0.707106781186548,0.707106781186548,1.,1.,0.707106781186548,      105P    250
0.707106781186548,1.,1.,0.707106781186548,0.707106781186548,1.,      105P    251
1.,-22.5,10.,0.,-22.5,0.,0.,-22.5,10.,22.5,-22.5,0.,22.5,0.,10.,     105P    252
22.5,0.,0.,22.5,22.5,10.,22.5,22.5,0.,22.5,22.5,10.,0.,22.5,0.,      105P    253
0.,22.5,10.,-22.5,22.5,0.,-22.5,0.,10.,-22.5,0.,0.,-22.5,-22.5,      105P    254
10.,-22.5,-22.5,0.,-22.5,-22.5,10.,0.,-22.5,0.,0.,0.,                105P    255
0.444444444444444,-3.14159265358979,3.14159265358979;                105P    256
128,1,1,1,1,0,0,1,0,0,-2.251,-2.251,2.251,2.251,-2.251,-2.251,       107P    257
2.251,2.251,1.,1.,1.,1.,-22.51,10.,22.51,22.51,10.,22.51,-22.51,     107P    258
10.,-22.51,22.51,10.,-22.51,-2.251,2.251,-2.251,2.251;               107P    259
502,10,12.3206479277742,0.,8.06161837700781,-15.3918902739913,       109P    260
0.,7.93822301370933,-1.42875765378288,0.,-15.9998413907171,          109P    261
12.3206479277742,10.,8.06161837700781,-15.3918902739913,10.,         109P    262
7.93822301370933,-1.42875765378288,10.,-15.9998413907171,-25.,       109P    263
0.,3.06161699786838D-15,-22.5,0.,2.75545529808154D-15,-25.,-3.,      109P    264
3.06161699786838D-15,-22.5,10.,2.75545529808154D-15;                 109P    265
504,15,57,109,1,109,1,59,109,2,109,2,61,109,3,109,3,63,109,4,        111P    266
109,4,65,109,4,109,1,67,109,5,109,5,69,109,5,109,2,71,109,6,109,     111P    267
6,73,109,6,109,3,75,109,7,109,7,77,109,8,109,8,79,109,9,109,9,       111P    268
81,109,9,109,7,83,109,10,109,10,85,109,10,109,8;                     111P    269
406,1,5HBody1;                                                       113P    270
314,62.7450980392157,62.7450980392157,62.7450980392157,13HSteel      115P    271
- Satin;                                                             115P    272
S      1G      2D    116P    272                                        T      1
