                                                                        S      1
,,11HHub_Inner_a,11HHub_Inner_a,7Hunknown,7Hunknown,32,38,7,99,15,,1.,2,G      1
2HMM,1,0.08,15H20160928.110541,0.01,10000.,7Hunknown,7Hunknown,11,0,;   G      2
     186       1                                                00000000D      1
     186             -83       1       0                               0D      2
     514       2                                                00010000D      3
     514                       1       1                               0D      4
     510       3                                                00010000D      5
     510             -83       1       1                               0D      6
     510       4                                                00010000D      7
     510             -83       1       1                               0D      8
     510       5                                                00010000D      9
     510             -83       1       1                               0D     10
     510       6                                                00010000D     11
     510             -83       1       1                               0D     12
     510       7                                                00010000D     13
     510             -83       1       1                               0D     14
     510       8                                                00010000D     15
     510             -83       1       1                               0D     16
     508       9                                                00010000D     17
     508                       1       1                               0D     18
     508      10                                                00010000D     19
     508                       1       1                               0D     20
     508      11                                                00010000D     21
     508                       1       1                               0D     22
     508      12                                                00010000D     23
     508                       1       1                               0D     24
     508      13                                                00010000D     25
     508                       1       1                               0D     26
     508      14                                                00010000D     27
     508                       1       1                               0D     28
     508      15                                                00010000D     29
     508                       1       1                               0D     30
     508      16                                                00010000D     31
     508                       1       1                               0D     32
     508      17                                                00010000D     33
     508                       1       1                               0D     34
     508      18                                                00010000D     35
     508                       1       1                               0D     36
     508      19                                                00010000D     37
     508                       1       1                               0D     38
     508      20                                                00010000D     39
     508                       1       1                               0D     40
     126      21                                                00010000D     41
     126       0              12       0                               0D     42
     126      33                                                00010000D     43
     126       0               3       0                               0D     44
     126      36                                                00010000D     45
     126       0              12       0                               0D     46
     126      48                                                00010000D     47
     126       0              12       0                               0D     48
     126      60                                                00010000D     49
     126       0               3       0                               0D     50
     126      63                                                00010000D     51
     126       0              12       0                               0D     52
     126      75                                                00010000D     53
     126       0              12       0                               0D     54
     126      87                                                00010000D     55
     126       0               3       0                               0D     56
     126      90                                                00010000D     57
     126       0              12       0                               0D     58
     126     102                                                00010000D     59
     126       0              10       0                               0D     60
     126     112                                                00010000D     61
     126       0              10       0                               0D     62
     126     122                                                00010000D     63
     126       0               2       0                               0D     64
     128     124                                                00010000D     65
     128       0     -83      20       0                               0D     66
     128     144                                                00010000D     67
     128       0     -83      20       0                               0D     68
     128     164                                                00010000D     69
     128       0     -83      20       0                               0D     70
     128     184                                                00010000D     71
     128       0     -83       3       0                               0D     72
     128     187                                                00010000D     73
     128       0     -83      12       0                               0D     74
     128     199                                                00010000D     75
     128       0     -83       3       0                               0D     76
     502     202                                                00010000D     77
     502                       5       1                               0D     78
     504     207                                                00010001D     79
     504                       3       1                               0D     80
     406     210                                                00000000D     81
     406                       1      15                               0D     82
     314     211                                                00000200D     83
     314                       2       0                               0D     84
186,3,1,0,0,1,81;                                                      1P      1
514,6,5,1,7,1,9,1,11,1,13,1,15,1;                                      3P      2
510,65,1,1,17;                                                         5P      3
510,67,1,1,19;                                                         7P      4
510,69,1,1,21;                                                         9P      5
510,71,4,1,23,25,27,29;                                               11P      6
510,73,1,1,31;                                                        13P      7
510,75,4,1,33,35,37,39;                                               15P      8
508,4,0,79,1,0,0,0,79,2,1,0,0,79,3,0,0,0,79,2,0,0;                    17P      9
508,4,0,79,4,0,0,0,79,5,1,0,0,79,6,0,0,0,79,5,0,0;                    19P     10
508,4,0,79,7,0,0,0,79,8,1,0,0,79,9,0,0,0,79,8,0,0;                    21P     11
508,1,0,79,10,0,0;                                                    23P     12
508,1,0,79,1,1,0;                                                     25P     13
508,1,0,79,4,1,0;                                                     27P     14
508,1,0,79,7,1,0;                                                     29P     15
508,4,0,79,11,0,0,0,79,12,1,0,0,79,10,1,0,0,79,12,0,0;                31P     16
508,1,0,79,11,1,0;                                                    33P     17
508,1,0,79,3,1,0;                                                     35P     18
508,1,0,79,6,1,0;                                                     37P     19
508,1,0,79,9,1,0;                                                     39P     20
126,8,2,0,1,0,0,-3.14159265358979,-3.14159265358979,                  41P     21
-3.14159265358979,-1.5707963267949,-1.5707963267949,0.,0.,            41P     22
1.5707963267949,1.5707963267949,3.14159265358979,                     41P     23
3.14159265358979,3.14159265358979,1.,0.707106781186547,1.,            41P     24
0.707106781186547,1.,0.707106781186547,1.,0.707106781186547,1.,       41P     25
11.8206479277742,0.,8.06161837700781,11.8206479277742,0.,             41P     26
10.0616183770078,13.8206479277742,0.,10.0616183770078,                41P     27
15.8206479277742,0.,10.0616183770078,15.8206479277742,0.,             41P     28
8.06161837700781,15.8206479277742,0.,6.06161837700781,                41P     29
13.8206479277742,0.,6.06161837700781,11.8206479277742,0.,             41P     30
6.06161837700781,11.8206479277742,0.,8.06161837700781,                41P     31
-3.14159265358979,3.14159265358979,0.,0.,0.;                          41P     32
126,1,1,0,0,1,0,12.,12.,17.,17.,1.,1.,11.8206479277742,0.,            43P     33
8.06161837700781,11.8206479277742,10.,8.06161837700781,12.,17.,       43P     34
0.,0.,0.;                                                             43P     35
126,8,2,0,1,0,0,-3.14159265358979,-3.14159265358979,                  45P     36
-3.14159265358979,-1.5707963267949,-1.5707963267949,0.,0.,            45P     37
1.5707963267949,1.5707963267949,3.14159265358979,                     45P     38
3.14159265358979,3.14159265358979,1.,0.707106781186547,1.,            45P     39
0.707106781186547,1.,0.707106781186547,1.,0.707106781186547,1.,       45P     40
11.8206479277742,10.,8.06161837700781,11.8206479277742,10.,           45P     41
6.06161837700781,13.8206479277742,10.,6.06161837700781,               45P     42
15.8206479277742,10.,6.06161837700781,15.8206479277742,10.,           45P     43
8.06161837700781,15.8206479277742,10.,10.0616183770078,               45P     44
13.8206479277742,10.,10.0616183770078,11.8206479277742,10.,           45P     45
10.0616183770078,11.8206479277742,10.,8.06161837700781,               45P     46
-3.14159265358979,3.14159265358979,0.,0.,0.;                          45P     47
126,8,2,0,1,0,0,-3.14159265358979,-3.14159265358979,                  47P     48
-3.14159265358979,-1.5707963267949,-1.5707963267949,0.,0.,            47P     49
1.5707963267949,1.5707963267949,3.14159265358979,                     47P     50
3.14159265358979,3.14159265358979,1.,0.707106781186547,1.,            47P     51
0.707106781186547,1.,0.707106781186547,1.,0.707106781186547,1.,       47P     52
-15.8918902739914,0.,7.93822301370933,-15.8918902739914,0.,           47P     53
9.93822301370933,-13.8918902739914,0.,9.93822301370933,               47P     54
-11.8918902739914,0.,9.93822301370933,-11.8918902739914,0.,           47P     55
7.93822301370933,-11.8918902739914,0.,5.93822301370933,               47P     56
-13.8918902739914,0.,5.93822301370933,-15.8918902739914,0.,           47P     57
5.93822301370933,-15.8918902739914,0.,7.93822301370933,               47P     58
-3.14159265358979,3.14159265358979,0.,0.,0.;                          47P     59
126,1,1,0,0,1,0,12.,12.,17.,17.,1.,1.,-15.8918902739914,0.,           49P     60
7.93822301370933,-15.8918902739914,10.,7.93822301370933,12.,17.,      49P     61
0.,0.,0.;                                                             49P     62
126,8,2,0,1,0,0,-3.14159265358979,-3.14159265358979,                  51P     63
-3.14159265358979,-1.5707963267949,-1.5707963267949,0.,0.,            51P     64
1.5707963267949,1.5707963267949,3.14159265358979,                     51P     65
3.14159265358979,3.14159265358979,1.,0.707106781186547,1.,            51P     66
0.707106781186547,1.,0.707106781186547,1.,0.707106781186547,1.,       51P     67
-15.8918902739914,10.,7.93822301370933,-15.8918902739914,10.,         51P     68
5.93822301370933,-13.8918902739914,10.,5.93822301370933,              51P     69
-11.8918902739914,10.,5.93822301370933,-11.8918902739914,10.,         51P     70
7.93822301370933,-11.8918902739914,10.,9.93822301370933,              51P     71
-13.8918902739914,10.,9.93822301370933,-15.8918902739914,10.,         51P     72
9.93822301370933,-15.8918902739914,10.,7.93822301370933,              51P     73
-3.14159265358979,3.14159265358979,0.,0.,0.;                          51P     74
126,8,2,0,1,0,0,-3.14159265358979,-3.14159265358979,                  53P     75
-3.14159265358979,-1.5707963267949,-1.5707963267949,0.,0.,            53P     76
1.5707963267949,1.5707963267949,3.14159265358979,                     53P     77
3.14159265358979,3.14159265358979,1.,0.707106781186547,1.,            53P     78
0.707106781186547,1.,0.707106781186547,1.,0.707106781186547,1.,       53P     79
-1.92875765378288,0.,-15.9998413907171,-1.92875765378288,0.,          53P     80
-13.9998413907171,0.071242346217121,0.,-13.9998413907171,             53P     81
2.07124234621712,0.,-13.9998413907171,2.07124234621712,0.,            53P     82
-15.9998413907171,2.07124234621712,0.,-17.9998413907171,              53P     83
0.071242346217121,0.,-17.9998413907171,-1.92875765378288,0.,          53P     84
-17.9998413907171,-1.92875765378288,0.,-15.9998413907171,             53P     85
-3.14159265358979,3.14159265358979,0.,0.,0.;                          53P     86
126,1,1,0,0,1,0,12.,12.,17.,17.,1.,1.,-1.92875765378288,0.,           55P     87
-15.9998413907171,-1.92875765378288,10.,-15.9998413907171,12.,        55P     88
17.,0.,0.,0.;                                                         55P     89
126,8,2,0,1,0,0,-3.14159265358979,-3.14159265358979,                  57P     90
-3.14159265358979,-1.5707963267949,-1.5707963267949,0.,0.,            57P     91
1.5707963267949,1.5707963267949,3.14159265358979,                     57P     92
3.14159265358979,3.14159265358979,1.,0.707106781186547,1.,            57P     93
0.707106781186547,1.,0.707106781186547,1.,0.707106781186547,1.,       57P     94
-1.92875765378288,10.,-15.9998413907171,-1.92875765378288,10.,        57P     95
-17.9998413907171,0.071242346217121,10.,-17.9998413907171,            57P     96
2.07124234621712,10.,-17.9998413907171,2.07124234621712,10.,          57P     97
-15.9998413907171,2.07124234621712,10.,-13.9998413907171,             57P     98
0.071242346217121,10.,-13.9998413907171,-1.92875765378288,10.,        57P     99
-13.9998413907171,-1.92875765378288,10.,-15.9998413907171,            57P    100
-3.14159265358979,3.14159265358979,0.,0.,0.;                          57P    101
126,8,2,0,1,0,0,-3.14159265358979,-3.14159265358979,                  59P    102
-3.14159265358979,-1.5707963267949,-1.5707963267949,0.,0.,            59P    103
1.5707963267949,1.5707963267949,3.14159265358979,                     59P    104
3.14159265358979,3.14159265358979,1.,0.707106781186548,1.,            59P    105
0.707106781186548,1.,0.707106781186548,1.,0.707106781186548,1.,       59P    106
-22.5,0.,2.75545529808154D-15,-22.5,0.,22.5,                          59P    107
1.37772764904077D-15,0.,22.5,22.5,0.,22.5,22.5,0.,0.,22.5,0.,         59P    108
-22.5,1.37772764904077D-15,0.,-22.5,-22.5,0.,-22.5,-22.5,0.,          59P    109
-2.75545529808154D-15,-3.14159265358979,3.14159265358979,0.,0.,       59P    110
0.;                                                                   59P    111
126,8,2,0,1,0,0,-3.14159265358979,-3.14159265358979,                  61P    112
-3.14159265358979,-1.5707963267949,-1.5707963267949,0.,0.,            61P    113
1.5707963267949,1.5707963267949,3.14159265358979,                     61P    114
3.14159265358979,3.14159265358979,1.,0.707106781186548,1.,            61P    115
0.707106781186548,1.,0.707106781186548,1.,0.707106781186548,1.,       61P    116
-22.5,10.,2.75545529808154D-15,-22.5,10.,22.5,                        61P    117
1.37772764904077D-15,10.,22.5,22.5,10.,22.5,22.5,10.,0.,22.5,         61P    118
10.,-22.5,1.37772764904077D-15,10.,-22.5,-22.5,10.,-22.5,-22.5,       61P    119
10.,-2.75545529808154D-15,-3.14159265358979,3.14159265358979,0.,      61P    120
0.,0.;                                                                61P    121
126,1,1,0,0,1,0,-0.444444444444444,-0.444444444444444,0.,0.,1.,       63P    122
1.,-22.5,10.,0.,-22.5,0.,0.,-0.444444444444444,0.,0.,0.,0.;           63P    123
128,1,8,1,2,0,1,0,0,1,12.,12.,17.,17.,-3.14159265358979,              65P    124
-3.14159265358979,-3.14159265358979,-1.5707963267949,                 65P    125
-1.5707963267949,0.,0.,1.5707963267949,1.5707963267949,               65P    126
3.14159265358979,3.14159265358979,3.14159265358979,1.,1.,             65P    127
0.707106781186548,0.707106781186548,1.,1.,0.707106781186548,          65P    128
0.707106781186548,1.,1.,0.707106781186548,0.707106781186548,1.,       65P    129
1.,0.707106781186548,0.707106781186548,1.,1.,11.8206479277742,        65P    130
0.,8.06161837700781,11.8206479277742,10.,8.06161837700781,            65P    131
11.8206479277742,0.,10.0616183770078,11.8206479277742,10.,            65P    132
10.0616183770078,13.8206479277742,0.,10.0616183770078,                65P    133
13.8206479277742,10.,10.0616183770078,15.8206479277742,0.,            65P    134
10.0616183770078,15.8206479277742,10.,10.0616183770078,               65P    135
15.8206479277742,0.,8.06161837700781,15.8206479277742,10.,            65P    136
8.06161837700781,15.8206479277742,0.,6.06161837700781,                65P    137
15.8206479277742,10.,6.06161837700781,13.8206479277742,0.,            65P    138
6.06161837700781,13.8206479277742,10.,6.06161837700781,               65P    139
11.8206479277742,0.,6.06161837700781,11.8206479277742,10.,            65P    140
6.06161837700781,11.8206479277742,0.,8.06161837700781,                65P    141
11.8206479277742,10.,8.06161837700781,12.,17.,-3.14159265358979,      65P    142
3.14159265358979;                                                     65P    143
128,1,8,1,2,0,1,0,0,1,12.,12.,17.,17.,-3.14159265358979,              67P    144
-3.14159265358979,-3.14159265358979,-1.5707963267949,                 67P    145
-1.5707963267949,0.,0.,1.5707963267949,1.5707963267949,               67P    146
3.14159265358979,3.14159265358979,3.14159265358979,1.,1.,             67P    147
0.707106781186548,0.707106781186548,1.,1.,0.707106781186548,          67P    148
0.707106781186548,1.,1.,0.707106781186548,0.707106781186548,1.,       67P    149
1.,0.707106781186548,0.707106781186548,1.,1.,-15.8918902739914,       67P    150
0.,7.93822301370933,-15.8918902739914,10.,7.93822301370933,           67P    151
-15.8918902739914,0.,9.93822301370933,-15.8918902739914,10.,          67P    152
9.93822301370933,-13.8918902739914,0.,9.93822301370933,               67P    153
-13.8918902739914,10.,9.93822301370933,-11.8918902739914,0.,          67P    154
9.93822301370933,-11.8918902739914,10.,9.93822301370933,              67P    155
-11.8918902739914,0.,7.93822301370933,-11.8918902739914,10.,          67P    156
7.93822301370933,-11.8918902739914,0.,5.93822301370933,               67P    157
-11.8918902739914,10.,5.93822301370933,-13.8918902739914,0.,          67P    158
5.93822301370933,-13.8918902739914,10.,5.93822301370933,              67P    159
-15.8918902739914,0.,5.93822301370933,-15.8918902739914,10.,          67P    160
5.93822301370933,-15.8918902739914,0.,7.93822301370933,               67P    161
-15.8918902739914,10.,7.93822301370933,12.,17.,                       67P    162
-3.14159265358979,3.14159265358979;                                   67P    163
128,1,8,1,2,0,1,0,0,1,12.,12.,17.,17.,-3.14159265358979,              69P    164
-3.14159265358979,-3.14159265358979,-1.5707963267949,                 69P    165
-1.5707963267949,0.,0.,1.5707963267949,1.5707963267949,               69P    166
3.14159265358979,3.14159265358979,3.14159265358979,1.,1.,             69P    167
0.707106781186548,0.707106781186548,1.,1.,0.707106781186548,          69P    168
0.707106781186548,1.,1.,0.707106781186548,0.707106781186548,1.,       69P    169
1.,0.707106781186548,0.707106781186548,1.,1.,-1.92875765378288,       69P    170
0.,-15.9998413907171,-1.92875765378288,10.,-15.9998413907171,         69P    171
-1.92875765378288,0.,-13.9998413907171,-1.92875765378288,10.,         69P    172
-13.9998413907171,0.0712423462171209,0.,-13.9998413907171,            69P    173
0.0712423462171209,10.,-13.9998413907171,2.07124234621712,0.,         69P    174
-13.9998413907171,2.07124234621712,10.,-13.9998413907171,             69P    175
2.07124234621712,0.,-15.9998413907171,2.07124234621712,10.,           69P    176
-15.9998413907171,2.07124234621712,0.,-17.9998413907171,              69P    177
2.07124234621712,10.,-17.9998413907171,0.0712423462171209,0.,         69P    178
-17.9998413907171,0.0712423462171209,10.,-17.9998413907171,           69P    179
-1.92875765378288,0.,-17.9998413907171,-1.92875765378288,10.,         69P    180
-17.9998413907171,-1.92875765378288,0.,-15.9998413907171,             69P    181
-1.92875765378288,10.,-15.9998413907171,12.,17.,                      69P    182
-3.14159265358979,3.14159265358979;                                   69P    183
128,1,1,1,1,0,0,1,0,0,-2.251,-2.251,2.251,2.251,-2.251,-2.251,        71P    184
2.251,2.251,1.,1.,1.,1.,22.51,0.,22.51,-22.51,0.,22.51,22.51,0.,      71P    185
-22.51,-22.51,0.,-22.51,-2.251,2.251,-2.251,2.251;                    71P    186
128,1,8,1,2,0,1,0,0,1,0.,0.,0.444444444444444,0.444444444444444,      73P    187
-3.14159265358979,-3.14159265358979,-3.14159265358979,                73P    188
-1.5707963267949,-1.5707963267949,0.,0.,1.5707963267949,              73P    189
1.5707963267949,3.14159265358979,3.14159265358979,                    73P    190
3.14159265358979,1.,1.,0.707106781186548,0.707106781186548,1.,        73P    191
1.,0.707106781186548,0.707106781186548,1.,1.,0.707106781186548,       73P    192
0.707106781186548,1.,1.,0.707106781186548,0.707106781186548,1.,       73P    193
1.,-22.5,10.,0.,-22.5,0.,0.,-22.5,10.,22.5,-22.5,0.,22.5,0.,10.,      73P    194
22.5,0.,0.,22.5,22.5,10.,22.5,22.5,0.,22.5,22.5,10.,0.,22.5,0.,       73P    195
0.,22.5,10.,-22.5,22.5,0.,-22.5,0.,10.,-22.5,0.,0.,-22.5,-22.5,       73P    196
10.,-22.5,-22.5,0.,-22.5,-22.5,10.,0.,-22.5,0.,0.,0.,                 73P    197
0.444444444444444,-3.14159265358979,3.14159265358979;                 73P    198
128,1,1,1,1,0,0,1,0,0,-2.251,-2.251,2.251,2.251,-2.251,-2.251,        75P    199
2.251,2.251,1.,1.,1.,1.,-22.51,10.,22.51,22.51,10.,22.51,-22.51,      75P    200
10.,-22.51,22.51,10.,-22.51,-2.251,2.251,-2.251,2.251;                75P    201
502,8,11.8206479277742,0.,8.06161837700781,11.8206479277742,10.,      77P    202
8.06161837700781,-15.8918902739914,0.,7.93822301370933,               77P    203
-15.8918902739914,10.,7.93822301370933,-1.92875765378288,0.,          77P    204
-15.9998413907171,-1.92875765378288,10.,-15.9998413907171,-22.5,      77P    205
0.,2.75545529808154D-15,-22.5,10.,2.75545529808154D-15;               77P    206
504,12,41,77,1,77,1,43,77,1,77,2,45,77,2,77,2,47,77,3,77,3,49,        79P    207
77,3,77,4,51,77,4,77,4,53,77,5,77,5,55,77,5,77,6,57,77,6,77,6,        79P    208
59,77,7,77,7,61,77,8,77,8,63,77,8,77,7;                               79P    209
406,1,5HBody1;                                                        81P    210
314,62.7450980392157,62.7450980392157,62.7450980392157,13HSteel       83P    211
- Satin;                                                              83P    212
S      1G      2D     84P    212                                        T      1
